# xmcd
#
# Track frame offsets: 
#        150
#        21696
#        41414
#        69339
#        86287
#        102652
#
# Disc length: 1795 seconds
#
# Revision: 0
# Processed by: cddbd v1.5.2PL0 Copyright (c) Steve Scherf et al.
# Submitted via: ExactAudioCopy v0.99pb5
#
DISCID=49070106
DTITLE=Sonik Foundry - The Epiphany
DYEAR=2010
DGENRE=Aggrotech
TTITLE0=The Wakening
TTITLE1=Stigmata (Epiphany Mix Feat. Jim Semonik)
TTITLE2=Mechanized (216 Mix BY Level 2.0)
TTITLE3=Columbine Soldiers (Combat Mix)
TTITLE4=Alone (2010 Mix)
TTITLE5=Mama
EXTD=
EXTT0=
EXTT1=
EXTT2=
EXTT3=
EXTT4=
EXTT5=
PLAYORDER=
